<svg width="32" height="32" viewBox="0 0 32 32" fill="none" xmlns="http://www.w3.org/2000/svg">
<path d="M10.052 30C22.1273 30 28.7347 19.9941 28.7347 11.3317C28.7347 11.0502 28.7347 10.7687 28.7219 10.4872C30.0024 9.56595 31.1164 8.40157 32 7.08366C30.8219 7.60827 29.5542 7.95374 28.2225 8.12008C29.5798 7.31398 30.617 6.02165 31.1164 4.48622C29.8487 5.24114 28.4402 5.77854 26.942 6.07283C25.7383 4.79331 24.0352 4 22.1529 4C18.529 4 15.5838 6.94291 15.5838 10.564C15.5838 11.0758 15.6479 11.5748 15.7503 12.061C10.2953 11.7923 5.45498 9.16929 2.21529 5.20276C1.65186 6.1752 1.33173 7.30118 1.33173 8.50394C1.33173 10.7815 2.497 12.7904 4.2513 13.9675C3.17567 13.9291 2.16407 13.6348 1.28051 13.1486C1.28051 13.1742 1.28051 13.1998 1.28051 13.2382C1.28051 16.4114 3.54702 19.0728 6.54342 19.6742C5.9928 19.8278 5.41657 19.9045 4.81473 19.9045C4.39216 19.9045 3.98239 19.8661 3.58543 19.7894C4.41777 22.3996 6.85074 24.2933 9.71909 24.3445C7.46539 26.1102 4.63545 27.1594 1.56223 27.1594C1.03722 27.1594 0.512205 27.1339 0 27.0699C2.89396 28.9124 6.35134 30 10.052 30Z" fill="black"/>
</svg>
