<svg width="33" height="32" viewBox="0 0 33 32" fill="none" xmlns="http://www.w3.org/2000/svg">
<path d="M17.1023 3.99731C17.1137 3.99734 17.126 3.99737 17.1391 3.9974L17.2807 3.99784C18.9243 4.00388 27.2545 4.06426 29.5005 4.66808C30.8774 5.03737 31.9615 6.12568 32.3295 7.50715C32.5321 8.26614 32.6733 9.27493 32.7717 10.3124L32.7908 10.5203C32.8063 10.6937 32.8206 10.8674 32.8339 11.0406L32.8492 11.248C32.9807 13.0762 32.996 14.787 32.9978 15.1613L32.998 15.2118C32.998 15.2159 32.998 15.2227 32.998 15.2227V15.251C32.998 15.251 32.998 15.2578 32.998 15.2619L32.9978 15.3124C32.996 15.7009 32.9795 17.5287 32.8339 19.4333L32.8175 19.6413L32.8 19.8495C32.7009 20.9947 32.5524 22.1318 32.3295 22.9666C31.9615 24.3481 30.8774 25.4366 29.5005 25.8057C27.1797 26.4298 18.3622 26.4735 17.1391 26.4766L17.0449 26.4768C17.0372 26.4768 17.0304 26.4768 17.0246 26.4768L16.9861 26.4768C16.9861 26.4768 16.9773 26.4768 16.9715 26.4768L16.8569 26.4766C16.2388 26.4751 13.6811 26.4631 11.0026 26.3711L10.6601 26.359C10.603 26.3569 10.5458 26.3547 10.4887 26.3525L10.1458 26.339L9.80376 26.3245C7.58475 26.2271 5.46905 26.0674 4.49578 25.8057C3.11894 25.4366 2.03474 24.3481 1.66676 22.9666C1.44383 22.1318 1.2952 20.9947 1.19612 19.8495L1.17865 19.6413L1.16223 19.4333C1.02181 17.5979 1.00142 15.8339 0.998463 15.3605L0.99811 15.2927C0.998085 15.2866 0.998064 15.281 0.998047 15.2758V15.1979C0.998064 15.1928 0.998085 15.1872 0.99811 15.1811L0.998463 15.1133C1.00114 14.6845 1.01812 13.1972 1.12561 11.5571L1.13952 11.3513C1.14192 11.3169 1.14436 11.2825 1.14684 11.248L1.16223 11.0406C1.17548 10.8674 1.1898 10.6937 1.20527 10.5203L1.22439 10.3124C1.32284 9.27493 1.46409 8.26614 1.66676 7.50715C2.03474 6.12568 3.11894 5.03737 4.49578 4.66808C5.46905 4.40642 7.58475 4.24681 9.80376 4.14945L10.1458 4.13496L10.4887 4.12142C10.5458 4.11924 10.603 4.1171 10.6601 4.11499L11.0026 4.10281C13.5102 4.01673 15.9118 4.00079 16.7153 3.99784L16.8569 3.9974C16.8701 3.99737 16.8823 3.99734 16.8937 3.99731H17.1023ZM13.7981 10.4197V20.054L22.1116 15.2371L13.7981 10.4197Z" fill="black"/>
</svg>
