<svg width="25" height="24" viewBox="0 0 25 24" fill="none" xmlns="http://www.w3.org/2000/svg">
<path d="M13.0762 2.99805C13.0848 2.99806 13.094 2.99809 13.1038 2.99811L13.21 2.99844C14.4427 3.00297 20.6904 3.04826 22.3749 3.50112C23.4075 3.77809 24.2207 4.59432 24.4967 5.63042C24.6486 6.19966 24.7545 6.95626 24.8283 7.73439L24.8426 7.89026C24.8542 8.0203 24.865 8.15064 24.8749 8.2805L24.8864 8.43605C24.985 9.80721 24.9965 11.0903 24.9979 11.371L24.998 11.4089C24.998 11.412 24.998 11.4171 24.998 11.4171V11.4383C24.998 11.4383 24.998 11.4434 24.998 11.4465L24.9979 11.4844C24.9965 11.7757 24.9842 13.1466 24.8749 14.575L24.8626 14.731L24.8495 14.8872C24.7752 15.7461 24.6638 16.5989 24.4967 17.225C24.2207 18.2611 23.4075 19.0775 22.3749 19.3543C20.6343 19.8224 14.0211 19.8552 13.1038 19.8575L13.0332 19.8577C13.0274 19.8577 13.0223 19.8577 13.0179 19.8577L12.9891 19.8577C12.9891 19.8577 12.9825 19.8577 12.9781 19.8577L12.8922 19.8575C12.4286 19.8564 10.5104 19.8474 8.50146 19.7784L8.24461 19.7693C8.20176 19.7677 8.15889 19.7661 8.11602 19.7645L7.85888 19.7543L7.60233 19.7434C5.93808 19.6704 4.3513 19.5506 3.62135 19.3543C2.58872 19.0775 1.77557 18.2611 1.49958 17.225C1.33238 16.5989 1.22091 15.7461 1.1466 14.8872L1.1335 14.731L1.12119 14.575C1.01587 13.1985 1.00058 11.8755 0.998359 11.5204L0.998094 11.4696C0.998075 11.465 0.99806 11.4608 0.998047 11.4569V11.3985C0.99806 11.3946 0.998075 11.3904 0.998094 11.3859L0.998359 11.335C1.00037 11.0134 1.0131 9.898 1.09372 8.66787L1.10415 8.51356C1.10595 8.48776 1.10778 8.46192 1.10964 8.43605L1.12119 8.2805C1.13112 8.15064 1.14186 8.0203 1.15346 7.89026L1.16781 7.73439C1.24164 6.95626 1.34758 6.19966 1.49958 5.63042C1.77557 4.59432 2.58872 3.77809 3.62135 3.50112C4.3513 3.30488 5.93808 3.18517 7.60233 3.11215L7.85888 3.10128L8.11602 3.09112C8.15889 3.08949 8.20176 3.08788 8.24461 3.0863L8.50146 3.07717C10.3821 3.01261 12.1834 3.00066 12.786 2.99844L12.8922 2.99811C12.9021 2.99809 12.9113 2.99806 12.9198 2.99805H13.0762ZM10.5981 7.81484V15.0406L16.8332 11.4279L10.5981 7.81484Z" fill="black"/>
</svg>
