<svg width="16" height="16" viewBox="0 0 16 16" fill="none" xmlns="http://www.w3.org/2000/svg">
<path d="M8.05115 1.99878C8.05684 1.99879 8.06298 1.99881 8.06955 1.99882L8.14035 1.99904C8.96214 2.00206 13.1273 2.03225 14.2503 2.33416C14.9387 2.51881 15.4808 3.06296 15.6648 3.7537C15.7661 4.13319 15.8367 4.63759 15.8859 5.15634L15.8954 5.26025C15.9032 5.34695 15.9103 5.43384 15.9169 5.52041L15.9246 5.62411C15.9904 6.53822 15.998 7.39362 15.9989 7.58078L15.999 7.60602C15.999 7.60809 15.999 7.61147 15.999 7.61147V7.62564C15.999 7.62564 15.999 7.62902 15.999 7.63109L15.9989 7.65634C15.998 7.85056 15.9898 8.76445 15.9169 9.71676L15.9087 9.82077L15.9 9.92488C15.8505 10.4975 15.7762 11.066 15.6648 11.4834C15.4808 12.1742 14.9387 12.7184 14.2503 12.903C13.0898 13.215 8.68109 13.2369 8.06955 13.2384L8.02246 13.2385C8.0186 13.2385 8.0152 13.2385 8.01228 13.2385L7.99307 13.2385C7.99307 13.2385 7.98866 13.2385 7.98573 13.2385L7.92846 13.2384C7.61941 13.2376 6.34057 13.2317 5.0013 13.1857L4.83007 13.1796C4.8015 13.1786 4.77292 13.1775 4.74434 13.1764L4.57291 13.1696L4.40188 13.1624C3.29238 13.1137 2.23452 13.0338 1.74789 12.903C1.05947 12.7184 0.517371 12.1742 0.333379 11.4834C0.221913 11.066 0.147602 10.4975 0.0980616 9.92488L0.0893244 9.82077L0.0811165 9.71676C0.0109033 8.79908 0.000711116 7.91708 -0.000768403 7.68035L-0.000945201 7.64646C-0.000957608 7.64341 -0.000967947 7.6406 -0.000976562 7.63804V7.59908C-0.000967947 7.59651 -0.000957608 7.5937 -0.000945201 7.59065L-0.000768403 7.55677C0.000571538 7.34238 0.00905783 6.59875 0.0628044 5.77866L0.0697612 5.67579C0.0709608 5.65859 0.0721808 5.64136 0.0734215 5.62411L0.0811165 5.52041C0.0877404 5.43384 0.0948985 5.34695 0.102634 5.26025L0.112196 5.15634C0.16142 4.63759 0.232046 4.13319 0.333379 3.7537C0.517371 3.06296 1.05947 2.51881 1.74789 2.33416C2.23452 2.20333 3.29238 2.12353 4.40188 2.07485L4.57291 2.0676L4.74434 2.06083C4.77292 2.05974 4.8015 2.05867 4.83007 2.05762L5.0013 2.05153C6.25508 2.00849 7.45591 2.00052 7.85767 1.99904L7.92846 1.99882C7.93504 1.99881 7.94117 1.99879 7.94686 1.99878H8.05115ZM6.39905 5.20997V10.0271L10.5558 7.61869L6.39905 5.20997Z" fill="black"/>
</svg>
